<svg width="18" height="18" viewBox="0 0 18 18" fill="none" xmlns="http://www.w3.org/2000/svg">
<path fill-rule="evenodd" clip-rule="evenodd" d="M6.49984 17.9583H11.4998C16.0248 17.9583 17.9582 16.025 17.9582 11.5V6.49996C17.9582 1.97496 16.0248 0.041626 11.4998 0.041626H6.49984C1.97484 0.041626 0.0415039 1.97496 0.0415039 6.49996V11.5C0.0415039 16.025 1.97484 17.9583 6.49984 17.9583ZM1.2915 6.49996C1.2915 2.65829 2.65817 1.29163 6.49984 1.29163H11.4998C15.3415 1.29163 16.7082 2.65829 16.7082 6.49996V11.5C16.7082 15.3416 15.3415 16.7083 11.4998 16.7083H6.49984C2.65817 16.7083 1.2915 15.3416 1.2915 11.5V6.49996ZM8.55817 11.2417C8.68317 11.3667 8.84151 11.4251 8.99984 11.4251C9.15817 11.4251 9.31651 11.3667 9.44151 11.2417L12.3832 8.30006C12.6248 8.05839 12.6248 7.65839 12.3832 7.41672C12.1415 7.17506 11.7415 7.17506 11.4998 7.41672L8.99984 9.91672L6.49984 7.41672C6.25817 7.17506 5.85817 7.17506 5.61651 7.41672C5.37484 7.65839 5.37484 8.05839 5.61651 8.30006L8.55817 11.2417Z" fill="#999FA6"/>
</svg>
